<svg width="22" height="20" viewBox="0 0 22 20" fill="none" xmlns="http://www.w3.org/2000/svg">
<path d="M10.9001 4.95926C12.0924 4.98361 13.2711 5.20585 14.3832 5.61601C15.1678 5.88587 15.8307 6.54099 16.249 7.46126C16.5468 8.14902 16.6967 8.88671 16.6898 9.63064C16.6829 10.3746 16.5193 11.1096 16.2087 11.7922C14.9316 14.6195 12.0024 15.0419 10.3698 15.0419C10.119 15.0419 9.86189 15.0318 9.60549 15.0132C7.15147 14.8314 5.76386 13.0443 5.32127 11.5692C5.08939 10.7507 5.05406 9.893 5.21792 9.05971C6.40104 6.30056 8.26066 4.95902 10.9004 4.95902M10.9004 4.15838C8.56998 4.15838 5.97428 5.1215 4.41186 8.82093C4.19844 9.80424 4.23292 10.8217 4.5125 11.7899C4.98228 13.3544 6.52368 15.5889 9.54046 15.8122C9.81664 15.8327 10.0938 15.8433 10.37 15.8433C13.1079 15.8433 15.7637 14.8071 16.9819 12.1094C18.3225 9.14048 17.0823 5.69255 14.6691 4.86247C13.4641 4.42498 12.1895 4.18678 10.9004 4.15814V4.15838Z" fill="white"/>
<path d="M9.89455 7.23089C8.46046 7.74047 7.37402 8.68404 7.57454 10.5535C7.69001 11.629 8.06658 12.6223 10.1794 12.9517C14.4052 13.611 14.5254 9.85463 14.0774 8.7879C13.8265 8.1647 13.3529 7.64569 12.74 7.32211C12.1271 6.99853 11.414 6.89111 10.7261 7.01872C10.4424 7.06379 10.1639 7.13484 9.89455 7.23089Z" fill="white"/>
<path opacity="0.58" d="M10.9 20C11.6775 20 12.3079 19.3997 12.3079 18.6591C12.3079 17.9186 11.6775 17.3183 10.9 17.3183C10.1224 17.3183 9.49212 17.9186 9.49212 18.6591C9.49212 19.3997 10.1224 20 10.9 20Z" fill="white"/>
<path d="M10.9 2.68167C11.6775 2.68167 12.3079 2.08136 12.3079 1.34084C12.3079 0.600313 11.6775 0 10.9 0C10.1224 0 9.49212 0.600313 9.49212 1.34084C9.49212 2.08136 10.1224 2.68167 10.9 2.68167Z" fill="white"/>
<path opacity="0.48" d="M4.46943 17.4652C5.24698 17.4652 5.87731 16.8649 5.87731 16.1243C5.87731 15.3838 5.24698 14.7835 4.46943 14.7835C3.69188 14.7835 3.06155 15.3838 3.06155 16.1243C3.06155 16.8649 3.69188 17.4652 4.46943 17.4652Z" fill="white"/>
<path opacity="0.88" d="M17.3306 5.21649C18.1081 5.21649 18.7384 4.61618 18.7384 3.87566C18.7384 3.13513 18.1081 2.53482 17.3306 2.53482C16.553 2.53482 15.9227 3.13513 15.9227 3.87566C15.9227 4.61618 16.553 5.21649 17.3306 5.21649Z" fill="white"/>
<path opacity="0.4" d="M1.80788 11.3409C2.58543 11.3409 3.21576 10.7406 3.21576 10.0001C3.21576 9.25955 2.58543 8.65924 1.80788 8.65924C1.03033 8.65924 0.400002 9.25955 0.400002 10.0001C0.400002 10.7406 1.03033 11.3409 1.80788 11.3409Z" fill="white"/>
<path opacity="0.7" d="M19.9921 11.3409C20.7697 11.3409 21.4 10.7405 21.4 10C21.4 9.25949 20.7697 8.65918 19.9921 8.65918C19.2146 8.65918 18.5842 9.25949 18.5842 10C18.5842 10.7405 19.2146 11.3409 19.9921 11.3409Z" fill="white"/>
<path opacity="0.35" d="M4.46943 5.21649C5.24698 5.21649 5.87731 4.61618 5.87731 3.87566C5.87731 3.13513 5.24698 2.53482 4.46943 2.53482C3.69188 2.53482 3.06155 3.13513 3.06155 3.87566C3.06155 4.61618 3.69188 5.21649 4.46943 5.21649Z" fill="white"/>
<path opacity="0.65" d="M17.3306 17.4652C18.1081 17.4652 18.7384 16.8649 18.7384 16.1243C18.7384 15.3838 18.1081 14.7835 17.3306 14.7835C16.553 14.7835 15.9227 15.3838 15.9227 16.1243C15.9227 16.8649 16.553 17.4652 17.3306 17.4652Z" fill="white"/>
<path opacity="0.5" d="M7.35431 19.3142C8.13186 19.3142 8.76218 18.7139 8.76218 17.9733C8.76218 17.2328 8.13186 16.6325 7.35431 16.6325C6.57676 16.6325 5.94643 17.2328 5.94643 17.9733C5.94643 18.7139 6.57676 19.3142 7.35431 19.3142Z" fill="white"/>
<path opacity="0.98" d="M14.4457 3.36747C15.2232 3.36747 15.8536 2.76715 15.8536 2.02663C15.8536 1.2861 15.2232 0.685791 14.4457 0.685791C13.6681 0.685791 13.0378 1.2861 13.0378 2.02663C13.0378 2.76715 13.6681 3.36747 14.4457 3.36747Z" fill="white"/>
<path opacity="0.45" d="M2.47327 14.5918C3.25082 14.5918 3.88115 13.9915 3.88115 13.251C3.88115 12.5105 3.25082 11.9102 2.47327 11.9102C1.69572 11.9102 1.06539 12.5105 1.06539 13.251C1.06539 13.9915 1.69572 14.5918 2.47327 14.5918Z" fill="white"/>
<path opacity="0.78" d="M19.3267 8.08988C20.1043 8.08988 20.7346 7.48956 20.7346 6.74904C20.7346 6.00852 20.1043 5.4082 19.3267 5.4082C18.5492 5.4082 17.9189 6.00852 17.9189 6.74904C17.9189 7.48956 18.5492 8.08988 19.3267 8.08988Z" fill="white"/>
<path opacity="0.38" d="M2.52796 7.96396C3.30551 7.96396 3.93584 7.36365 3.93584 6.62312C3.93584 5.8826 3.30551 5.28229 2.52796 5.28229C1.75041 5.28229 1.12008 5.8826 1.12008 6.62312C1.12008 7.36365 1.75041 7.96396 2.52796 7.96396Z" fill="white"/>
<path opacity="0.68" d="M19.272 14.7177C20.0496 14.7177 20.6799 14.1174 20.6799 13.3768C20.6799 12.6363 20.0496 12.036 19.272 12.036C18.4945 12.036 17.8642 12.6363 17.8642 13.3768C17.8642 14.1174 18.4945 14.7177 19.272 14.7177Z" fill="white"/>
<path opacity="0.3" d="M7.49102 3.31537C8.26857 3.31537 8.8989 2.71506 8.8989 1.97453C8.8989 1.23401 8.26857 0.633698 7.49102 0.633698C6.71347 0.633698 6.08315 1.23401 6.08315 1.97453C6.08315 2.71506 6.71347 3.31537 7.49102 3.31537Z" fill="white"/>
<path opacity="0.6" d="M14.3135 19.3663C15.0911 19.3663 15.7214 18.766 15.7214 18.0255C15.7214 17.2849 15.0911 16.6846 14.3135 16.6846C13.536 16.6846 12.9057 17.2849 12.9057 18.0255C12.9057 18.766 13.536 19.3663 14.3135 19.3663Z" fill="white"/>
</svg>
