<svg width="15" height="16" viewBox="0 0 15 16" fill="none" xmlns="http://www.w3.org/2000/svg">
<path fill-rule="evenodd" clip-rule="evenodd" d="M3.97581 4.05858C3.97581 2.68678 5.08788 1.57471 6.45968 1.57471C7.83152 1.57471 8.94355 2.68678 8.94355 4.05858C8.94355 5.43037 7.83152 6.54245 6.45968 6.54245H1.94355C1.64068 6.54245 1.39516 6.29693 1.39516 5.99406C1.39516 5.6912 1.64068 5.44567 1.94355 5.44567H6.45968C7.22577 5.44567 7.84677 4.82465 7.84677 4.05858C7.84677 3.2925 7.22577 2.67148 6.45968 2.67148C5.69361 2.67148 5.07258 3.29251 5.07258 4.05858C5.07258 4.36144 4.82706 4.60696 4.52419 4.60696C4.22133 4.60696 3.97581 4.36144 3.97581 4.05858ZM2.04032 11.1554C2.04032 10.8525 2.28584 10.607 2.58871 10.607H9.68548C11.0573 10.607 12.1694 11.719 12.1694 13.0908C12.1694 14.4627 11.0573 15.5747 9.68548 15.5747C8.31365 15.5747 7.20161 14.4627 7.20161 13.0908C7.20161 12.788 7.44713 12.5424 7.75 12.5424C8.05287 12.5424 8.29839 12.788 8.29839 13.0908C8.29839 13.8569 8.91938 14.4779 9.68548 14.4779C10.4516 14.4779 11.0726 13.8569 11.0726 13.0908C11.0726 12.3247 10.4516 11.7037 9.68548 11.7037H2.58871C2.28584 11.7037 2.04032 11.4582 2.04032 11.1554ZM12.2661 4.15535C10.8943 4.15535 9.78226 5.26743 9.78226 6.63922C9.78226 6.94209 10.0278 7.18761 10.3306 7.18761C10.6335 7.18761 10.879 6.94209 10.879 6.63922C10.879 5.87315 11.5 5.25213 12.2661 5.25213C13.0322 5.25213 13.6532 5.87315 13.6532 6.63922C13.6532 7.40532 13.0322 8.02632 12.2661 8.02632H1.29839C0.995521 8.02632 0.75 8.27184 0.75 8.57471C0.75 8.87757 0.995521 9.12309 1.29839 9.12309H12.2661C13.638 9.12309 14.75 8.01106 14.75 6.63922C14.75 5.26743 13.638 4.15535 12.2661 4.15535Z" fill="black"/>
</svg>
