<svg width="14" height="14" viewBox="0 0 14 14" fill="none" xmlns="http://www.w3.org/2000/svg">
<g clip-path="url(#clip0_0_481)">
<path d="M7.403 0.421882C7.20144 0.192706 6.80107 0.192706 6.5995 0.421882C6.42555 0.620686 2.02979 5.24563 2.02979 8.20559C2.02979 11.2512 4.24147 13.75 6.99987 13.75C9.75827 13.75 11.97 11.2512 11.97 8.20559C11.9699 5.24563 7.57417 0.620686 7.403 0.421882ZM6.99985 12.6014C4.87375 12.6014 3.15079 10.6188 3.15079 8.17798C3.15079 6.31144 5.64964 3.14991 6.99985 1.62851C8.35005 3.14991 10.8489 6.33905 10.8489 8.17798C10.8489 10.6188 9.12594 12.6014 6.99985 12.6014Z" fill="black"/>
<path d="M10.0473 8.06087C10.0473 7.7461 9.78777 7.51416 9.47299 7.51416C9.15822 7.51416 8.92628 7.77371 8.92628 8.08848C8.92628 8.08848 8.9539 9.49667 7.92122 10.0986C7.66167 10.2698 7.57608 10.6149 7.71966 10.8745C7.90189 11.123 8.13659 11.2417 8.46517 11.1037C10.1053 10.187 10.0473 8.14647 10.0473 8.06087Z" fill="black"/>
</g>
<defs>
<clipPath id="clip0_0_481">
<rect width="13.5" height="13.5" fill="white" transform="translate(0.25 0.25)"/>
</clipPath>
</defs>
</svg>
