<svg width="12" height="14" viewBox="0 0 12 14" fill="none" xmlns="http://www.w3.org/2000/svg">
<path fill-rule="evenodd" clip-rule="evenodd" d="M7.54389 0.631178C7.53154 0.380417 7.32148 0.144952 7.04232 0.213083L7.04215 0.213124C6.30281 0.395033 5.27053 1.02861 4.60845 1.99195C3.94224 2.96129 3.64994 4.26697 4.40453 5.77679L4.40457 5.77687C4.68749 6.34152 4.62139 6.73923 4.42432 6.93579L4.42424 6.93587C4.24857 7.11154 4.00013 7.19972 3.72672 7.08188C3.44493 6.96043 3.1144 6.61152 2.81056 5.85298L2.73081 5.88493L2.81056 5.85298C2.7152 5.61493 2.4349 5.45993 2.18656 5.60242L2.18654 5.60243C1.20199 6.16758 0.600708 7.41278 0.600708 8.68846C0.600708 11.712 3.18131 13.843 6.17559 13.843C9.17463 13.843 11.5234 11.6966 11.5234 8.68846C11.5234 6.84769 10.601 5.87733 9.65703 4.88433L9.65352 4.88064C9.60777 4.8325 9.56174 4.78431 9.51556 4.73595C8.56255 3.73804 7.544 2.67151 7.544 0.635708H7.45196L7.54389 0.631178ZM5.07293 3.78834C5.11529 3.34821 5.28403 2.95907 5.51846 2.61818C5.79441 2.22626 6.1441 1.89244 6.54752 1.63517C6.89049 3.54862 7.92251 4.66083 8.78737 5.57195L8.79964 5.58539L8.79963 5.5854L8.80087 5.58671C9.77451 6.61194 10.4189 7.29472 10.4189 8.68846C10.4189 11.0327 8.61981 12.7385 6.17559 12.7385C3.67234 12.7385 1.70525 10.9894 1.70525 8.68846C1.70525 8.05723 1.89989 7.48825 2.19015 7.07739C2.48168 7.54295 2.84159 7.90293 3.29006 8.09615L3.29009 8.09616C4.06503 8.42977 4.78208 8.1405 5.20548 7.71711C5.89387 7.02872 5.76996 6.03663 5.39268 5.2827C5.11384 4.72501 5.03059 4.22817 5.07293 3.78834Z" fill="black"/>
</svg>
