<svg width="23" height="24" viewBox="0 0 23 24" fill="none" xmlns="http://www.w3.org/2000/svg">
<g filter="url(#filter0_dd_0_506)">
<path d="M11.5 9.42319V13.4776C11.9035 13.7036 12.175 14.1261 12.175 14.61C12.175 15.3321 11.5706 15.9174 10.825 15.9174C10.0794 15.9174 9.475 15.3321 9.475 14.61C9.475 14.1261 9.74648 13.7036 10.15 13.4776V9.42319H8.8C6.56325 9.42319 4.75 7.6672 4.75 5.50108V3.54003C4.75 3.17901 5.05221 2.88635 5.425 2.88635H7.45C8.67714 2.88635 9.7768 3.41488 10.5195 4.2497C11.3059 2.30361 13.2618 0.925293 15.55 0.925293H17.575C17.9478 0.925293 18.25 1.21796 18.25 1.57898V4.19371C18.25 7.08187 15.8323 9.42319 12.85 9.42319H11.5ZM6.1 4.19371V5.50108C6.1 6.94516 7.30883 8.11582 8.8 8.11582H10.15V6.80845C10.15 5.36437 8.94117 4.19371 7.45 4.19371H6.1ZM16.9 2.23266H15.55C13.3132 2.23266 11.5 3.98865 11.5 6.15477V8.11582H12.85C15.0868 8.11582 16.9 6.35983 16.9 4.19371V2.23266Z" fill="black"/>
</g>
<defs>
<filter id="filter0_dd_0_506" x="0.75" y="0.925293" width="21.5" height="22.9921" filterUnits="userSpaceOnUse" color-interpolation-filters="sRGB">
<feFlood flood-opacity="0" result="BackgroundImageFix"/>
<feColorMatrix in="SourceAlpha" type="matrix" values="0 0 0 0 0 0 0 0 0 0 0 0 0 0 0 0 0 0 127 0" result="hardAlpha"/>
<feOffset dy="4"/>
<feGaussianBlur stdDeviation="2"/>
<feComposite in2="hardAlpha" operator="out"/>
<feColorMatrix type="matrix" values="0 0 0 0 0 0 0 0 0 0 0 0 0 0 0 0 0 0 0.25 0"/>
<feBlend mode="normal" in2="BackgroundImageFix" result="effect1_dropShadow_0_506"/>
<feColorMatrix in="SourceAlpha" type="matrix" values="0 0 0 0 0 0 0 0 0 0 0 0 0 0 0 0 0 0 127 0" result="hardAlpha"/>
<feOffset dy="4"/>
<feGaussianBlur stdDeviation="2"/>
<feComposite in2="hardAlpha" operator="out"/>
<feColorMatrix type="matrix" values="0 0 0 0 0 0 0 0 0 0 0 0 0 0 0 0 0 0 0.25 0"/>
<feBlend mode="normal" in2="effect1_dropShadow_0_506" result="effect2_dropShadow_0_506"/>
<feBlend mode="normal" in="SourceGraphic" in2="effect2_dropShadow_0_506" result="shape"/>
</filter>
</defs>
</svg>
